{"glyphs":{"0":{"ha":419,"x_min":0,"x_max":0,"o":"m 385 169 l 385 803 b 209 993 385 913 322 993 b 33 803 96 993 33 913 l 33 169 b 209 -21 33 59 96 -21 b 385 169 322 -21 385 59 z m 170 415 l 170 807 b 209 867 170 846 184 867 b 249 807 234 867 249 846 b 170 415 249 615 203 529 z m 170 166 b 249 556 170 356 216 441 l 249 166 b 209 105 249 126 234 105 b 170 166 184 105 170 126 z "},"1":{"ha":333,"x_min":0,"x_max":0,"o":"m 69 972 l 69 846 l 161 846 l 161 0 l 298 0 l 298 972 z "},"2":{"ha":411,"x_min":0,"x_max":0,"o":"m 246 690 b 31 223 246 508 31 447 l 31 0 l 383 0 l 383 126 l 167 126 l 167 215 b 383 682 167 397 383 459 l 383 803 b 207 993 383 913 320 993 b 31 803 94 993 31 913 l 31 682 l 167 682 l 167 807 b 207 867 167 846 182 867 b 246 807 232 867 246 846 l 246 690 z "},"3":{"ha":414,"x_min":0,"x_max":0,"o":"m 204 867 b 243 807 229 867 243 846 l 243 610 b 204 549 243 570 229 549 l 164 549 l 164 423 l 204 423 b 243 363 229 423 243 402 l 243 166 b 204 105 243 126 229 105 b 164 166 179 105 164 126 l 164 290 l 28 290 l 28 169 b 204 -21 28 59 91 -21 b 380 169 317 -21 380 59 l 380 359 b 342 486 380 409 367 453 b 380 614 367 519 380 564 l 380 803 b 204 993 380 913 317 993 b 28 803 91 993 28 913 l 28 682 l 164 682 l 164 807 b 204 867 164 846 179 867 z "},"4":{"ha":469,"x_min":0,"x_max":0,"o":"m 136 836 l 69 423 l 298 423 l 298 0 l 435 0 l 435 972 l 298 972 l 298 549 l 227 549 l 273 836 l 136 836 z "},"5":{"ha":414,"x_min":0,"x_max":0,"o":"m 247 470 l 247 166 b 208 105 247 126 233 105 b 169 166 183 105 169 126 l 169 290 l 32 290 l 32 169 b 208 -21 32 59 95 -21 b 384 169 321 -21 384 59 l 384 466 b 208 657 384 577 321 657 l 169 657 l 169 846 l 343 846 l 343 972 l 32 972 l 32 531 l 208 531 b 247 470 233 531 247 510 z "},"6":{"ha":419,"x_min":0,"x_max":0,"o":"m 33 803 l 33 169 b 209 -21 33 59 96 -21 b 385 169 322 -21 385 59 l 385 466 b 209 657 385 577 322 657 b 170 653 195 657 182 656 l 170 807 b 209 867 170 846 184 867 b 249 807 234 867 249 846 l 249 682 l 385 682 l 385 803 b 209 993 385 913 322 993 b 33 803 96 993 33 913 z m 170 166 l 170 470 b 209 531 170 510 184 531 b 249 470 234 531 249 510 l 249 166 b 209 105 249 126 234 105 b 170 166 184 105 170 126 z "},"7":{"ha":444,"x_min":0,"x_max":0,"o":"m 281 846 l 161 0 l 298 0 l 435 972 l 69 972 l 69 846 z "},"8":{"ha":419,"x_min":0,"x_max":0,"o":"m 385 169 l 385 466 b 347 594 385 516 372 561 b 385 721 372 627 385 671 l 385 803 b 209 993 385 913 322 993 b 33 803 96 993 33 913 l 33 721 b 71 594 33 671 46 627 b 33 466 46 561 33 516 l 33 169 b 209 -21 33 59 96 -21 b 385 169 322 -21 385 59 z m 170 717 l 170 807 b 209 867 170 846 184 867 b 249 807 234 867 249 846 l 249 717 b 209 657 249 678 234 657 b 170 717 184 657 170 678 z m 170 166 l 170 470 b 209 531 170 510 184 531 b 249 470 234 531 249 510 l 249 166 b 209 105 249 126 234 105 b 170 166 184 105 170 126 z "},"9":{"ha":419,"x_min":0,"x_max":0,"o":"m 209 -21 b 385 169 322 -21 385 59 l 385 803 b 209 993 385 913 322 993 b 33 803 96 993 33 913 l 33 506 b 209 315 33 395 96 315 b 249 319 224 315 237 317 l 249 166 b 209 105 249 126 234 105 b 170 166 184 105 170 126 l 170 290 l 33 290 l 33 169 b 209 -21 33 59 96 -21 z m 170 502 l 170 807 b 209 867 170 846 184 867 b 249 807 234 867 249 846 l 249 502 b 209 441 249 462 234 441 b 170 502 184 441 170 462 z "},"\u0000":{"ha":0,"x_min":0,"x_max":0,"o":""},"\n":{"ha":0,"x_min":0,"x_max":0,"o":""},"\r":{"ha":0,"x_min":0,"x_max":0,"o":""}," ":{"ha":251,"x_min":0,"x_max":0,"o":""},"!":{"ha":217,"x_min":0,"x_max":0,"o":"m 32 55 b 108 -21 32 13 67 -21 b 184 55 149 -21 184 13 b 108 130 184 96 149 130 b 32 55 67 130 32 96 z m 40 972 l 40 218 l 176 218 l 176 972 z "},"\"":{"ha":247,"x_min":0,"x_max":0,"o":"m 22 972 l 22 815 l 101 815 l 101 972 z m 225 815 l 225 972 l 146 972 l 146 815 z "},"“":{"ha":247,"x_min":0,"x_max":0,"o":"m 22 972 l 22 815 l 101 815 l 101 972 z m 225 815 l 225 972 l 146 972 l 146 815 z "},"”":{"ha":247,"x_min":0,"x_max":0,"o":"m 22 972 l 22 815 l 101 815 l 101 972 z m 225 815 l 225 972 l 146 972 l 146 815 z "},"#":{"ha":514,"x_min":0,"x_max":0,"o":"m 302 0 l 439 0 l 439 288 l 484 288 l 484 414 l 439 414 l 439 558 l 484 558 l 484 684 l 439 684 l 439 972 l 302 972 l 302 684 l 210 684 l 210 972 l 74 972 l 74 684 l 29 684 l 29 558 l 74 558 l 74 414 l 29 414 l 29 288 l 74 288 l 74 0 l 210 0 l 210 288 l 302 288 z m 210 414 l 210 558 l 302 558 l 302 414 z "},"$":{"ha":419,"x_min":0,"x_max":0,"o":"m 33 611 b 249 353 33 388 249 470 l 249 166 b 209 105 249 126 234 105 b 170 166 184 105 170 126 l 170 410 l 33 410 l 33 169 b 170 -17 33 72 82 -1 l 170 -87 l 249 -87 l 249 -17 b 385 169 337 -1 385 72 l 385 361 b 170 619 385 585 170 502 l 170 807 b 209 867 170 846 184 867 b 249 807 234 867 249 846 l 249 562 l 385 562 l 385 803 b 249 989 385 900 337 974 l 249 1059 l 170 1059 l 170 989 b 33 803 82 974 33 900 l 33 611 z "},"%":{"ha":511,"x_min":0,"x_max":0,"o":"m 21 607 b 113 507 21 544 54 507 b 205 607 171 507 205 544 l 205 783 b 113 883 205 846 171 883 b 21 783 54 883 21 846 z m 92 603 l 92 787 b 113 819 92 808 100 819 b 134 787 126 819 134 808 l 134 603 b 113 572 134 582 126 572 b 92 603 100 572 92 582 z m 93 0 l 172 0 l 418 972 l 339 972 z m 306 189 b 398 89 306 126 339 89 b 490 189 456 89 490 126 l 490 365 b 398 465 490 428 456 465 b 306 365 339 465 306 428 z m 377 185 l 377 369 b 398 401 377 390 385 401 b 419 369 411 401 419 390 l 419 185 b 398 154 419 164 411 154 b 377 185 385 154 377 164 z "},"&":{"ha":461,"x_min":0,"x_max":0,"o":"m 209 867 b 249 803 234 867 249 846 l 385 803 b 209 993 385 913 322 993 b 33 803 96 993 33 913 l 33 721 b 71 594 33 671 46 627 b 33 466 46 561 33 516 l 33 169 b 209 -21 33 59 96 -21 b 385 169 322 -21 385 59 l 385 531 l 438 531 l 438 657 l 385 657 l 385 709 l 249 709 l 249 657 l 209 657 b 170 717 184 657 170 678 l 170 807 b 209 867 170 846 184 867 z m 170 166 l 170 470 b 209 531 170 510 184 531 l 249 531 l 249 166 b 209 105 249 126 234 105 b 170 166 184 105 170 126 z "},"'":{"ha":124,"x_min":0,"x_max":0,"o":"m 22 972 l 22 815 l 101 815 l 101 972 z "},"‘":{"ha":124,"x_min":0,"x_max":0,"o":"m 22 972 l 22 815 l 101 815 l 101 972 z "},"’":{"ha":124,"x_min":0,"x_max":0,"o":"m 22 972 l 22 815 l 101 815 l 101 972 z "},"(":{"ha":213,"x_min":0,"x_max":0,"o":"m 211 -100 l 211 -21 b 171 39 186 -21 171 0 l 171 933 b 211 993 171 972 186 993 l 211 1072 b 35 880 98 1072 35 991 l 35 91 b 211 -100 35 -20 98 -100 z "},")":{"ha":213,"x_min":0,"x_max":0,"o":"m 41 39 b 1 -21 41 0 26 -21 l 1 -100 b 177 91 114 -100 177 -20 l 177 880 b 1 1072 177 991 114 1072 l 1 993 b 41 933 26 993 41 972 z "},"*":{"ha":207,"x_min":0,"x_max":0,"o":"m 86 841 l 119 841 l 119 886 l 151 854 l 173 876 l 142 908 l 186 908 l 186 941 l 142 941 l 173 972 l 151 995 l 119 963 l 119 1008 l 86 1008 l 86 963 l 55 995 l 33 972 l 64 941 l 19 941 l 19 908 l 64 908 l 33 876 l 55 854 l 86 886 z "},"+":{"ha":344,"x_min":0,"x_max":0,"o":"m 324 532 l 211 532 l 211 660 l 132 660 l 132 532 l 19 532 l 19 453 l 132 453 l 132 327 l 211 327 l 211 453 l 324 453 z "},",":{"ha":176,"x_min":0,"x_max":0,"o":"m 38 -101 l 44 -112 b 156 38 82 -88 156 -33 b 88 108 156 76 124 108 b 18 38 50 108 18 76 b 73 -30 61 28 73 -1 b 38 -101 73 -53 63 -80 z "},"-":{"ha":357,"x_min":0,"x_max":0,"o":"m 21 583 l 21 457 l 335 457 l 335 583 z "},".":{"ha":192,"x_min":0,"x_max":0,"o":"m 96 -21 b 172 55 136 -21 172 13 b 96 130 172 96 136 130 b 19 55 55 130 19 96 b 96 -21 19 13 55 -21 z "},"/":{"ha":564,"x_min":0,"x_max":0,"o":"m 69 -168 l 206 -168 l 494 972 l 357 972 z "},":":{"ha":193,"x_min":0,"x_max":0,"o":"m 24 516 b 96 444 24 477 56 444 b 168 516 135 444 168 477 b 96 589 168 556 135 589 b 24 516 56 589 24 556 z m 96 87 b 168 159 135 87 168 120 b 96 233 168 200 135 233 b 24 159 56 233 24 200 b 96 87 24 120 56 87 z "},";":{"ha":193,"x_min":0,"x_max":0,"o":"m 24 516 b 96 444 24 477 56 444 b 168 516 135 444 168 477 b 96 589 168 556 135 589 b 24 516 56 589 24 556 z m 81 79 b 47 11 81 58 72 32 l 54 0 b 163 146 91 24 163 76 b 96 213 163 181 131 213 b 29 146 60 213 29 181 b 81 79 71 135 81 108 z "},"<":{"ha":496,"x_min":0,"x_max":0,"o":"m 397 736 l 69 410 l 397 84 l 483 171 l 243 410 l 483 649 z "},"=":{"ha":350,"x_min":0,"x_max":0,"o":"m 327 532 l 22 532 l 22 453 l 327 453 z m 22 348 l 327 348 l 327 427 l 22 427 z "},">":{"ha":496,"x_min":0,"x_max":0,"o":"m 99 736 l 13 649 l 253 410 l 13 171 l 99 84 l 426 410 z "},"?":{"ha":388,"x_min":0,"x_max":0,"o":"m 236 780 b 101 376 236 599 101 599 l 101 218 l 238 218 l 238 368 b 373 773 238 549 373 577 l 373 803 b 197 993 373 913 310 993 b 21 803 84 993 21 913 l 21 682 l 157 682 l 157 807 b 197 867 157 846 172 867 b 236 807 222 867 236 846 l 236 780 z m 93 55 b 169 -21 93 13 129 -21 b 245 55 210 -21 245 13 b 169 130 245 96 210 130 b 93 55 129 130 93 96 z "},"@":{"ha":413,"x_min":0,"x_max":0,"o":"m 31 641 l 31 288 b 207 97 31 177 94 97 l 207 127 b 61 288 111 127 61 197 l 61 641 b 207 804 61 732 108 804 b 352 641 305 804 352 732 l 352 342 b 309 282 352 309 338 289 l 309 700 l 199 700 b 96 587 133 700 96 660 l 96 322 b 199 209 96 250 133 209 l 288 209 b 383 342 351 209 383 252 l 383 641 b 207 832 383 752 320 832 b 31 641 94 832 31 752 z m 199 281 b 175 317 184 281 175 294 l 175 593 b 199 628 175 615 184 628 l 230 628 l 230 281 l 199 281 z "},"A":{"ha":396,"x_min":0,"x_max":0,"o":"m 388 0 l 289 972 l 105 972 l 7 0 l 144 0 l 154 139 l 241 139 l 251 0 z m 165 265 l 197 673 l 230 265 z "},"À":{"ha":396,"x_min":0,"x_max":0,"o":"m 388 0 l 289 972 l 105 972 l 7 0 l 144 0 l 154 139 l 241 139 l 251 0 z m 165 265 l 197 673 l 230 265 z "},"Á":{"ha":396,"x_min":0,"x_max":0,"o":"m 388 0 l 289 972 l 105 972 l 7 0 l 144 0 l 154 139 l 241 139 l 251 0 z m 165 265 l 197 673 l 230 265 z "},"Â":{"ha":396,"x_min":0,"x_max":0,"o":"m 388 0 l 289 972 l 105 972 l 7 0 l 144 0 l 154 139 l 241 139 l 251 0 z m 165 265 l 197 673 l 230 265 z "},"Ã":{"ha":396,"x_min":0,"x_max":0,"o":"m 388 0 l 289 972 l 105 972 l 7 0 l 144 0 l 154 139 l 241 139 l 251 0 z m 165 265 l 197 673 l 230 265 z "},"Ä":{"ha":396,"x_min":0,"x_max":0,"o":"m 388 0 l 289 972 l 105 972 l 7 0 l 144 0 l 154 139 l 241 139 l 251 0 z m 165 265 l 197 673 l 230 265 z "},"Å":{"ha":396,"x_min":0,"x_max":0,"o":"m 388 0 l 289 972 l 105 972 l 7 0 l 144 0 l 154 139 l 241 139 l 251 0 z m 165 265 l 197 673 l 230 265 z "},"B":{"ha":414,"x_min":0,"x_max":0,"o":"m 211 972 l 35 972 l 35 0 l 211 0 b 387 191 324 0 387 80 l 387 359 b 349 486 387 409 374 453 b 387 614 374 519 387 564 l 387 782 b 211 972 387 892 324 972 z m 211 549 l 171 549 l 171 846 l 211 846 b 250 786 236 846 250 825 l 250 610 b 211 549 250 570 236 549 z m 171 126 l 171 423 l 211 423 b 250 363 236 423 250 402 l 250 187 b 211 126 250 147 236 126 z "},"C":{"ha":410,"x_min":0,"x_max":0,"o":"m 383 169 l 383 410 l 246 410 l 246 166 b 207 105 246 126 232 105 b 167 166 182 105 167 126 l 167 807 b 207 867 167 846 182 867 b 246 807 232 867 246 846 l 246 562 l 383 562 l 383 803 b 207 993 383 913 320 993 b 31 803 94 993 31 913 l 31 169 b 207 -21 31 59 94 -21 b 383 169 320 -21 383 59 z "},"Ç":{"ha":410,"x_min":0,"x_max":0,"o":"m 383 169 l 383 410 l 246 410 l 246 166 b 207 105 246 126 232 105 b 167 166 182 105 167 126 l 167 807 b 207 867 167 846 182 867 b 246 807 232 867 246 846 l 246 562 l 383 562 l 383 803 b 207 993 383 913 320 993 b 31 803 94 993 31 913 l 31 169 b 207 -21 31 59 94 -21 b 383 169 320 -21 383 59 z "},"D":{"ha":417,"x_min":0,"x_max":0,"o":"m 211 972 l 35 972 l 35 0 l 211 0 b 387 191 324 0 387 80 l 387 782 b 211 972 387 892 324 972 z m 171 126 l 171 846 l 211 846 b 250 786 236 846 250 825 l 250 187 b 211 126 250 147 236 126 z "},"E":{"ha":335,"x_min":0,"x_max":0,"o":"m 35 972 l 35 0 l 332 0 l 332 126 l 171 126 l 171 423 l 254 423 l 254 549 l 171 549 l 171 846 l 332 846 l 332 972 z "},"È":{"ha":335,"x_min":0,"x_max":0,"o":"m 35 972 l 35 0 l 332 0 l 332 126 l 171 126 l 171 423 l 254 423 l 254 549 l 171 549 l 171 846 l 332 846 l 332 972 z "},"É":{"ha":335,"x_min":0,"x_max":0,"o":"m 35 972 l 35 0 l 332 0 l 332 126 l 171 126 l 171 423 l 254 423 l 254 549 l 171 549 l 171 846 l 332 846 l 332 972 z "},"Ê":{"ha":335,"x_min":0,"x_max":0,"o":"m 35 972 l 35 0 l 332 0 l 332 126 l 171 126 l 171 423 l 254 423 l 254 549 l 171 549 l 171 846 l 332 846 l 332 972 z "},"Ë":{"ha":335,"x_min":0,"x_max":0,"o":"m 35 972 l 35 0 l 332 0 l 332 126 l 171 126 l 171 423 l 254 423 l 254 549 l 171 549 l 171 846 l 332 846 l 332 972 z "},"F":{"ha":324,"x_min":0,"x_max":0,"o":"m 35 972 l 35 0 l 171 0 l 171 423 l 254 423 l 254 549 l 171 549 l 171 846 l 332 846 l 332 972 z "},"G":{"ha":410,"x_min":0,"x_max":0,"o":"m 383 169 l 383 410 l 197 410 l 197 284 l 246 284 l 246 166 b 207 105 246 126 232 105 b 167 166 182 105 167 126 l 167 807 b 207 867 167 846 182 867 b 246 807 232 867 246 846 l 246 562 l 383 562 l 383 803 b 207 993 383 913 320 993 b 31 803 94 993 31 913 l 31 169 b 207 -21 31 59 94 -21 b 383 169 320 -21 383 59 z "},"H":{"ha":435,"x_min":0,"x_max":0,"o":"m 263 0 l 400 0 l 400 972 l 263 972 l 263 549 l 171 549 l 171 972 l 35 972 l 35 0 l 171 0 l 171 423 l 263 423 z "},"I":{"ha":207,"x_min":0,"x_max":0,"o":"m 35 972 l 35 0 l 171 0 l 171 972 z "},"Ì":{"ha":207,"x_min":0,"x_max":0,"o":"m 35 972 l 35 0 l 171 0 l 171 972 z "},"Í":{"ha":207,"x_min":0,"x_max":0,"o":"m 35 972 l 35 0 l 171 0 l 171 972 z "},"Î":{"ha":207,"x_min":0,"x_max":0,"o":"m 35 972 l 35 0 l 171 0 l 171 972 z "},"Ï":{"ha":207,"x_min":0,"x_max":0,"o":"m 35 972 l 35 0 l 171 0 l 171 972 z "},"J":{"ha":296,"x_min":0,"x_max":0,"o":"m 63 114 l -17 9 b 87 -21 11 -11 45 -21 b 263 169 200 -21 263 59 l 263 972 l 127 972 l 127 166 b 87 105 127 126 112 105 b 63 114 78 105 70 108 z "},"K":{"ha":406,"x_min":0,"x_max":0,"o":"m 35 0 l 171 0 l 171 972 l 35 972 z m 263 0 l 400 0 l 295 549 l 400 972 l 263 972 l 171 549 z "},"L":{"ha":319,"x_min":0,"x_max":0,"o":"m 35 972 l 35 0 l 332 0 l 332 126 l 171 126 l 171 972 z "},"M":{"ha":642,"x_min":0,"x_max":0,"o":"m 64 972 l 18 0 l 155 0 l 172 536 l 228 0 l 412 0 l 469 536 l 486 0 l 622 0 l 576 972 l 392 972 l 320 294 l 248 972 z "},"N":{"ha":458,"x_min":0,"x_max":0,"o":"m 238 0 l 422 0 l 422 972 l 286 972 l 286 468 l 219 972 l 35 972 l 35 0 l 171 0 l 171 505 z "},"Ñ":{"ha":458,"x_min":0,"x_max":0,"o":"m 238 0 l 422 0 l 422 972 l 286 972 l 286 468 l 219 972 l 35 972 l 35 0 l 171 0 l 171 505 z "},"O":{"ha":414,"x_min":0,"x_max":0,"o":"m 383 169 l 383 803 b 207 993 383 913 320 993 b 31 803 94 993 31 913 l 31 169 b 207 -21 31 59 94 -21 b 383 169 320 -21 383 59 z m 167 166 l 167 807 b 207 867 167 846 182 867 b 246 807 232 867 246 846 l 246 166 b 207 105 246 126 232 105 b 167 166 182 105 167 126 z "},"Ò":{"ha":414,"x_min":0,"x_max":0,"o":"m 383 169 l 383 803 b 207 993 383 913 320 993 b 31 803 94 993 31 913 l 31 169 b 207 -21 31 59 94 -21 b 383 169 320 -21 383 59 z m 167 166 l 167 807 b 207 867 167 846 182 867 b 246 807 232 867 246 846 l 246 166 b 207 105 246 126 232 105 b 167 166 182 105 167 126 z "},"Ó":{"ha":414,"x_min":0,"x_max":0,"o":"m 383 169 l 383 803 b 207 993 383 913 320 993 b 31 803 94 993 31 913 l 31 169 b 207 -21 31 59 94 -21 b 383 169 320 -21 383 59 z m 167 166 l 167 807 b 207 867 167 846 182 867 b 246 807 232 867 246 846 l 246 166 b 207 105 246 126 232 105 b 167 166 182 105 167 126 z "},"Ô":{"ha":414,"x_min":0,"x_max":0,"o":"m 383 169 l 383 803 b 207 993 383 913 320 993 b 31 803 94 993 31 913 l 31 169 b 207 -21 31 59 94 -21 b 383 169 320 -21 383 59 z m 167 166 l 167 807 b 207 867 167 846 182 867 b 246 807 232 867 246 846 l 246 166 b 207 105 246 126 232 105 b 167 166 182 105 167 126 z "},"Õ":{"ha":414,"x_min":0,"x_max":0,"o":"m 383 169 l 383 803 b 207 993 383 913 320 993 b 31 803 94 993 31 913 l 31 169 b 207 -21 31 59 94 -21 b 383 169 320 -21 383 59 z m 167 166 l 167 807 b 207 867 167 846 182 867 b 246 807 232 867 246 846 l 246 166 b 207 105 246 126 232 105 b 167 166 182 105 167 126 z "},"Ö":{"ha":414,"x_min":0,"x_max":0,"o":"m 383 169 l 383 803 b 207 993 383 913 320 993 b 31 803 94 993 31 913 l 31 169 b 207 -21 31 59 94 -21 b 383 169 320 -21 383 59 z m 167 166 l 167 807 b 207 867 167 846 182 867 b 246 807 232 867 246 846 l 246 166 b 207 105 246 126 232 105 b 167 166 182 105 167 126 z "},"Ø":{"ha":414,"x_min":0,"x_max":0,"o":"m 383 169 l 383 803 b 207 993 383 913 320 993 b 31 803 94 993 31 913 l 31 169 b 207 -21 31 59 94 -21 b 383 169 320 -21 383 59 z m 167 166 l 167 807 b 207 867 167 846 182 867 b 246 807 232 867 246 846 l 246 166 b 207 105 246 126 232 105 b 167 166 182 105 167 126 z "},"P":{"ha":390,"x_min":0,"x_max":0,"o":"m 211 972 l 35 972 l 35 0 l 171 0 l 171 423 l 211 423 b 387 614 324 423 387 503 l 387 782 b 211 972 387 892 324 972 z m 211 549 l 171 549 l 171 846 l 211 846 b 250 786 236 846 250 825 l 250 610 b 211 549 250 570 236 549 z "},"Q":{"ha":414,"x_min":0,"x_max":0,"o":"m 296 0 b 383 169 352 30 383 93 l 383 803 b 207 993 383 913 320 993 b 31 803 94 993 31 913 l 31 169 b 159 -16 31 75 77 3 b 335 -188 167 -117 229 -188 l 335 -62 b 296 -1 310 -62 296 -41 l 296 0 z m 167 166 l 167 807 b 207 867 167 846 182 867 b 246 807 232 867 246 846 l 246 166 b 207 105 246 126 232 105 b 167 166 182 105 167 126 z "},"R":{"ha":417,"x_min":0,"x_max":0,"o":"m 211 972 l 35 972 l 35 0 l 171 0 l 171 423 l 211 423 b 250 363 236 423 250 402 l 250 0 l 387 0 l 387 359 b 349 486 387 409 374 453 b 387 614 374 519 387 564 l 387 782 b 211 972 387 892 324 972 z m 211 549 l 171 549 l 171 846 l 211 846 b 250 786 236 846 250 825 l 250 610 b 211 549 250 570 236 549 z "},"S":{"ha":408,"x_min":0,"x_max":0,"o":"m 243 353 l 243 166 b 204 105 243 126 229 105 b 164 166 179 105 164 126 l 164 410 l 28 410 l 28 169 b 204 -21 28 59 91 -21 b 380 169 317 -21 380 59 l 380 361 b 164 619 380 585 164 502 l 164 807 b 204 867 164 846 179 867 b 243 807 229 867 243 846 l 243 562 l 380 562 l 380 803 b 204 993 380 913 317 993 b 28 803 91 993 28 913 l 28 611 b 243 353 28 388 243 470 z "},"T":{"ha":351,"x_min":0,"x_max":0,"o":"m 358 972 l -7 972 l -7 846 l 107 846 l 107 0 l 244 0 l 244 846 l 358 846 z "},"U":{"ha":417,"x_min":0,"x_max":0,"o":"m 208 -21 b 384 169 321 -21 384 59 l 384 972 l 247 972 l 247 166 b 208 105 247 126 233 105 b 169 166 183 105 169 126 l 169 972 l 32 972 l 32 169 b 208 -21 32 59 95 -21 z "},"Ù":{"ha":417,"x_min":0,"x_max":0,"o":"m 208 -21 b 384 169 321 -21 384 59 l 384 972 l 247 972 l 247 166 b 208 105 247 126 233 105 b 169 166 183 105 169 126 l 169 972 l 32 972 l 32 169 b 208 -21 32 59 95 -21 z "},"Ú":{"ha":417,"x_min":0,"x_max":0,"o":"m 208 -21 b 384 169 321 -21 384 59 l 384 972 l 247 972 l 247 166 b 208 105 247 126 233 105 b 169 166 183 105 169 126 l 169 972 l 32 972 l 32 169 b 208 -21 32 59 95 -21 z "},"Û":{"ha":417,"x_min":0,"x_max":0,"o":"m 208 -21 b 384 169 321 -21 384 59 l 384 972 l 247 972 l 247 166 b 208 105 247 126 233 105 b 169 166 183 105 169 126 l 169 972 l 32 972 l 32 169 b 208 -21 32 59 95 -21 z "},"Ü":{"ha":417,"x_min":0,"x_max":0,"o":"m 208 -21 b 384 169 321 -21 384 59 l 384 972 l 247 972 l 247 166 b 208 105 247 126 233 105 b 169 166 183 105 169 126 l 169 972 l 32 972 l 32 169 b 208 -21 32 59 95 -21 z "},"V":{"ha":396,"x_min":0,"x_max":0,"o":"m 7 972 l 100 0 l 295 0 l 388 972 l 251 972 l 197 300 l 144 972 z "},"W":{"ha":697,"x_min":0,"x_max":0,"o":"m 7 972 l 100 0 l 295 0 l 349 561 l 402 0 l 597 0 l 690 972 l 553 972 l 500 300 l 446 972 l 251 972 l 197 300 l 144 972 z "},"X":{"ha":374,"x_min":0,"x_max":0,"o":"m 234 0 l 371 0 l 255 486 l 371 972 l 234 972 l 187 734 l 139 972 l 3 972 l 118 486 l 3 0 l 139 0 l 187 238 z "},"Y":{"ha":360,"x_min":0,"x_max":0,"o":"m 248 0 l 248 370 l 364 972 l 227 972 l 180 636 l 132 972 l -4 972 l 111 370 l 111 0 z "},"Ý":{"ha":360,"x_min":0,"x_max":0,"o":"m 248 0 l 248 370 l 364 972 l 227 972 l 180 636 l 132 972 l -4 972 l 111 370 l 111 0 z "},"Ÿ":{"ha":360,"x_min":0,"x_max":0,"o":"m 248 0 l 248 370 l 364 972 l 227 972 l 180 636 l 132 972 l -4 972 l 111 370 l 111 0 z "},"Z":{"ha":364,"x_min":0,"x_max":0,"o":"m 366 972 l 26 972 l 26 846 l 200 846 l -1 0 l 339 0 l 339 126 l 165 126 z "},"[":{"ha":207,"x_min":0,"x_max":0,"o":"m 35 -100 l 263 -100 l 263 -21 l 171 -21 l 171 993 l 263 993 l 263 1072 l 35 1072 z "},"\\":{"ha":564,"x_min":0,"x_max":0,"o":"m 69 972 l 357 -168 l 494 -168 l 206 972 z "},"]":{"ha":207,"x_min":0,"x_max":0,"o":"m 172 -100 l 172 1072 l -57 1072 l -57 993 l 35 993 l 35 -21 l -57 -21 l -57 -100 z "},"^":{"ha":257,"x_min":0,"x_max":0,"o":"m 240 866 l 128 977 l 17 866 l 73 809 l 128 864 l 184 809 z "},"_":{"ha":290,"x_min":0,"x_max":0,"o":"m 0 0 l 0 -126 l 289 -126 l 289 0 z "},"a":{"ha":408,"x_min":0,"x_max":0,"o":"m 193 0 l 377 0 l 377 657 l 193 657 b 22 472 84 657 22 590 l 22 185 b 193 0 22 67 84 0 z m 193 118 b 154 179 168 118 154 139 l 154 478 b 193 539 154 518 168 539 l 246 539 l 246 118 l 193 118 z "},"à":{"ha":408,"x_min":0,"x_max":0,"o":"m 193 0 l 377 0 l 377 657 l 193 657 b 22 472 84 657 22 590 l 22 185 b 193 0 22 67 84 0 z m 193 118 b 154 179 168 118 154 139 l 154 478 b 193 539 154 518 168 539 l 246 539 l 246 118 l 193 118 z "},"á":{"ha":408,"x_min":0,"x_max":0,"o":"m 193 0 l 377 0 l 377 657 l 193 657 b 22 472 84 657 22 590 l 22 185 b 193 0 22 67 84 0 z m 193 118 b 154 179 168 118 154 139 l 154 478 b 193 539 154 518 168 539 l 246 539 l 246 118 l 193 118 z "},"â":{"ha":408,"x_min":0,"x_max":0,"o":"m 193 0 l 377 0 l 377 657 l 193 657 b 22 472 84 657 22 590 l 22 185 b 193 0 22 67 84 0 z m 193 118 b 154 179 168 118 154 139 l 154 478 b 193 539 154 518 168 539 l 246 539 l 246 118 l 193 118 z "},"ã":{"ha":408,"x_min":0,"x_max":0,"o":"m 193 0 l 377 0 l 377 657 l 193 657 b 22 472 84 657 22 590 l 22 185 b 193 0 22 67 84 0 z m 193 118 b 154 179 168 118 154 139 l 154 478 b 193 539 154 518 168 539 l 246 539 l 246 118 l 193 118 z "},"ä":{"ha":408,"x_min":0,"x_max":0,"o":"m 193 0 l 377 0 l 377 657 l 193 657 b 22 472 84 657 22 590 l 22 185 b 193 0 22 67 84 0 z m 193 118 b 154 179 168 118 154 139 l 154 478 b 193 539 154 518 168 539 l 246 539 l 246 118 l 193 118 z "},"å":{"ha":408,"x_min":0,"x_max":0,"o":"m 193 0 l 377 0 l 377 657 l 193 657 b 22 472 84 657 22 590 l 22 185 b 193 0 22 67 84 0 z m 193 118 b 154 179 168 118 154 139 l 154 478 b 193 539 154 518 168 539 l 246 539 l 246 118 l 193 118 z "},"b":{"ha":408,"x_min":0,"x_max":0,"o":"m 31 0 l 214 0 b 385 185 324 0 385 67 l 385 472 b 214 657 385 590 324 657 l 162 657 l 162 972 l 31 972 z m 214 118 l 162 118 l 162 539 l 214 539 b 254 478 239 539 254 518 l 254 179 b 214 118 254 139 239 118 z "},"c":{"ha":388,"x_min":0,"x_max":0,"o":"m 367 164 l 367 259 l 235 259 l 235 158 b 196 97 235 118 221 97 b 156 158 171 97 156 118 l 156 499 b 196 560 156 539 171 560 b 235 499 221 560 235 539 l 235 398 l 367 398 l 367 493 b 196 678 367 611 305 678 b 25 493 87 678 25 611 l 25 164 b 196 -21 25 46 87 -21 b 367 164 305 -21 367 46 z "},"ç":{"ha":388,"x_min":0,"x_max":0,"o":"m 367 164 l 367 259 l 235 259 l 235 158 b 196 97 235 118 221 97 b 156 158 171 97 156 118 l 156 499 b 196 560 156 539 171 560 b 235 499 221 560 235 539 l 235 398 l 367 398 l 367 493 b 196 678 367 611 305 678 b 25 493 87 678 25 611 l 25 164 b 196 -21 25 46 87 -21 b 367 164 305 -21 367 46 z "},"d":{"ha":408,"x_min":0,"x_max":0,"o":"m 193 0 l 377 0 l 377 972 l 246 972 l 246 657 l 193 657 b 22 472 84 657 22 590 l 22 185 b 193 0 22 67 84 0 z m 193 118 b 154 179 168 118 154 139 l 154 478 b 193 539 154 518 168 539 l 246 539 l 246 118 l 193 118 z "},"e":{"ha":390,"x_min":0,"x_max":0,"o":"m 196 -21 b 367 164 305 -21 367 46 l 367 259 l 235 259 l 235 158 b 196 97 235 118 221 97 b 156 158 171 97 156 118 l 156 332 l 367 332 l 367 493 b 196 678 367 611 305 678 b 25 493 87 678 25 611 l 25 164 b 196 -21 25 46 87 -21 z m 156 451 l 156 499 b 196 560 156 539 171 560 b 235 499 221 560 235 539 l 235 451 z "},"è":{"ha":390,"x_min":0,"x_max":0,"o":"m 196 -21 b 367 164 305 -21 367 46 l 367 259 l 235 259 l 235 158 b 196 97 235 118 221 97 b 156 158 171 97 156 118 l 156 332 l 367 332 l 367 493 b 196 678 367 611 305 678 b 25 493 87 678 25 611 l 25 164 b 196 -21 25 46 87 -21 z m 156 451 l 156 499 b 196 560 156 539 171 560 b 235 499 221 560 235 539 l 235 451 z "},"é":{"ha":390,"x_min":0,"x_max":0,"o":"m 196 -21 b 367 164 305 -21 367 46 l 367 259 l 235 259 l 235 158 b 196 97 235 118 221 97 b 156 158 171 97 156 118 l 156 332 l 367 332 l 367 493 b 196 678 367 611 305 678 b 25 493 87 678 25 611 l 25 164 b 196 -21 25 46 87 -21 z m 156 451 l 156 499 b 196 560 156 539 171 560 b 235 499 221 560 235 539 l 235 451 z "},"ê":{"ha":390,"x_min":0,"x_max":0,"o":"m 196 -21 b 367 164 305 -21 367 46 l 367 259 l 235 259 l 235 158 b 196 97 235 118 221 97 b 156 158 171 97 156 118 l 156 332 l 367 332 l 367 493 b 196 678 367 611 305 678 b 25 493 87 678 25 611 l 25 164 b 196 -21 25 46 87 -21 z m 156 451 l 156 499 b 196 560 156 539 171 560 b 235 499 221 560 235 539 l 235 451 z "},"ë":{"ha":390,"x_min":0,"x_max":0,"o":"m 196 -21 b 367 164 305 -21 367 46 l 367 259 l 235 259 l 235 158 b 196 97 235 118 221 97 b 156 158 171 97 156 118 l 156 332 l 367 332 l 367 493 b 196 678 367 611 305 678 b 25 493 87 678 25 611 l 25 164 b 196 -21 25 46 87 -21 z m 156 451 l 156 499 b 196 560 156 539 171 560 b 235 499 221 560 235 539 l 235 451 z "},"f":{"ha":233,"x_min":0,"x_max":0,"o":"m 51 0 l 182 0 l 182 539 l 221 539 l 221 657 l 182 657 l 182 794 b 221 854 182 833 196 854 l 221 972 b 51 787 112 972 51 905 l 51 657 l 11 657 l 11 539 l 51 539 z "},"g":{"ha":408,"x_min":0,"x_max":0,"o":"m 377 -99 l 377 657 l 193 657 b 22 472 84 657 22 590 l 22 185 b 193 0 22 67 84 0 l 246 0 l 246 -105 b 206 -166 246 -145 231 -166 b 167 -105 181 -166 167 -145 l 167 -80 l 35 -80 l 35 -99 b 206 -284 35 -217 97 -284 b 377 -99 315 -284 377 -217 z m 193 118 b 154 179 168 118 154 139 l 154 478 b 193 539 154 518 168 539 l 246 539 l 246 118 l 193 118 z "},"h":{"ha":413,"x_min":0,"x_max":0,"o":"m 31 0 l 162 0 l 162 539 l 214 539 b 254 478 239 539 254 518 l 254 0 l 385 0 l 385 472 b 214 657 385 590 324 657 l 162 657 l 162 972 l 31 972 z "},"i":{"ha":194,"x_min":0,"x_max":0,"o":"m 18 824 b 97 745 18 780 52 745 b 176 824 142 745 176 780 b 97 904 176 868 142 904 b 18 824 52 904 18 868 z m 31 0 l 163 0 l 163 657 l 31 657 z "},"ì":{"ha":194,"x_min":0,"x_max":0,"o":"m 18 824 b 97 745 18 780 52 745 b 176 824 142 745 176 780 b 97 904 176 868 142 904 b 18 824 52 904 18 868 z m 31 0 l 163 0 l 163 657 l 31 657 z "},"í":{"ha":194,"x_min":0,"x_max":0,"o":"m 18 824 b 97 745 18 780 52 745 b 176 824 142 745 176 780 b 97 904 176 868 142 904 b 18 824 52 904 18 868 z m 31 0 l 163 0 l 163 657 l 31 657 z "},"î":{"ha":194,"x_min":0,"x_max":0,"o":"m 18 824 b 97 745 18 780 52 745 b 176 824 142 745 176 780 b 97 904 176 868 142 904 b 18 824 52 904 18 868 z m 31 0 l 163 0 l 163 657 l 31 657 z "},"ï":{"ha":194,"x_min":0,"x_max":0,"o":"m 18 824 b 97 745 18 780 52 745 b 176 824 142 745 176 780 b 97 904 176 868 142 904 b 18 824 52 904 18 868 z m 31 0 l 163 0 l 163 657 l 31 657 z "},"j":{"ha":194,"x_min":0,"x_max":0,"o":"m -8 -145 l -8 -263 b 162 -78 101 -263 162 -196 l 162 657 l 31 657 l 31 -84 b -8 -145 31 -123 17 -145 z m 18 824 b 97 745 18 780 52 745 b 176 824 141 745 176 780 b 97 904 176 868 141 904 b 18 824 52 904 18 868 z "},"k":{"ha":389,"x_min":0,"x_max":0,"o":"m 31 0 l 162 0 l 162 323 l 254 0 l 385 0 l 279 328 l 385 657 l 254 657 l 162 334 l 162 972 l 31 972 z "},"l":{"ha":193,"x_min":0,"x_max":0,"o":"m 31 0 l 162 0 l 162 972 l 31 972 z "},"m":{"ha":636,"x_min":0,"x_max":0,"o":"m 31 0 l 162 0 l 162 539 l 214 539 b 254 478 239 539 254 518 l 254 0 l 385 0 l 385 472 b 377 539 385 497 383 519 l 438 539 b 477 478 463 539 477 518 l 477 0 l 609 0 l 609 472 b 438 657 609 590 547 657 l 31 657 z "},"n":{"ha":413,"x_min":0,"x_max":0,"o":"m 31 0 l 162 0 l 162 539 l 214 539 b 254 478 239 539 254 518 l 254 0 l 385 0 l 385 472 b 214 657 385 590 324 657 l 31 657 z "},"ñ":{"ha":413,"x_min":0,"x_max":0,"o":"m 31 0 l 162 0 l 162 539 l 214 539 b 254 478 239 539 254 518 l 254 0 l 385 0 l 385 472 b 214 657 385 590 324 657 l 31 657 z "},"o":{"ha":392,"x_min":0,"x_max":0,"o":"m 367 164 l 367 493 b 196 678 367 611 305 678 b 25 493 87 678 25 611 l 25 164 b 196 -21 25 46 87 -21 b 367 164 305 -21 367 46 z m 156 158 l 156 499 b 196 560 156 539 171 560 b 235 499 221 560 235 539 l 235 158 b 196 97 235 118 221 97 b 156 158 171 97 156 118 z "},"ò":{"ha":392,"x_min":0,"x_max":0,"o":"m 367 164 l 367 493 b 196 678 367 611 305 678 b 25 493 87 678 25 611 l 25 164 b 196 -21 25 46 87 -21 b 367 164 305 -21 367 46 z m 156 158 l 156 499 b 196 560 156 539 171 560 b 235 499 221 560 235 539 l 235 158 b 196 97 235 118 221 97 b 156 158 171 97 156 118 z "},"ó":{"ha":392,"x_min":0,"x_max":0,"o":"m 367 164 l 367 493 b 196 678 367 611 305 678 b 25 493 87 678 25 611 l 25 164 b 196 -21 25 46 87 -21 b 367 164 305 -21 367 46 z m 156 158 l 156 499 b 196 560 156 539 171 560 b 235 499 221 560 235 539 l 235 158 b 196 97 235 118 221 97 b 156 158 171 97 156 118 z "},"ô":{"ha":392,"x_min":0,"x_max":0,"o":"m 367 164 l 367 493 b 196 678 367 611 305 678 b 25 493 87 678 25 611 l 25 164 b 196 -21 25 46 87 -21 b 367 164 305 -21 367 46 z m 156 158 l 156 499 b 196 560 156 539 171 560 b 235 499 221 560 235 539 l 235 158 b 196 97 235 118 221 97 b 156 158 171 97 156 118 z "},"õ":{"ha":392,"x_min":0,"x_max":0,"o":"m 367 164 l 367 493 b 196 678 367 611 305 678 b 25 493 87 678 25 611 l 25 164 b 196 -21 25 46 87 -21 b 367 164 305 -21 367 46 z m 156 158 l 156 499 b 196 560 156 539 171 560 b 235 499 221 560 235 539 l 235 158 b 196 97 235 118 221 97 b 156 158 171 97 156 118 z "},"ö":{"ha":392,"x_min":0,"x_max":0,"o":"m 367 164 l 367 493 b 196 678 367 611 305 678 b 25 493 87 678 25 611 l 25 164 b 196 -21 25 46 87 -21 b 367 164 305 -21 367 46 z m 156 158 l 156 499 b 196 560 156 539 171 560 b 235 499 221 560 235 539 l 235 158 b 196 97 235 118 221 97 b 156 158 171 97 156 118 z "},"ø":{"ha":392,"x_min":0,"x_max":0,"o":"m 367 164 l 367 493 b 196 678 367 611 305 678 b 25 493 87 678 25 611 l 25 164 b 196 -21 25 46 87 -21 b 367 164 305 -21 367 46 z m 156 158 l 156 499 b 196 560 156 539 171 560 b 235 499 221 560 235 539 l 235 158 b 196 97 235 118 221 97 b 156 158 171 97 156 118 z "},"p":{"ha":408,"x_min":0,"x_max":0,"o":"m 214 657 l 31 657 l 31 -263 l 162 -263 l 162 0 l 214 0 b 385 185 324 0 385 67 l 385 472 b 214 657 385 590 324 657 z m 214 118 l 162 118 l 162 539 l 214 539 b 254 478 239 539 254 518 l 254 179 b 214 118 254 139 239 118 z "},"q":{"ha":408,"x_min":0,"x_max":0,"o":"m 377 657 l 193 657 b 22 472 84 657 22 590 l 22 185 b 193 0 22 67 84 0 l 246 0 l 246 -263 l 377 -263 z m 193 118 b 154 179 168 118 154 139 l 154 478 b 193 539 154 518 168 539 l 246 539 l 246 118 l 193 118 z "},"r":{"ha":381,"x_min":0,"x_max":0,"o":"m 31 0 l 162 0 l 162 539 l 214 539 b 254 478 239 539 254 518 l 254 472 l 385 472 b 214 657 385 590 324 657 l 31 657 z "},"s":{"ha":383,"x_min":0,"x_max":0,"o":"m 192 678 b 21 493 83 678 21 611 l 21 466 b 231 191 21 271 231 305 l 231 158 b 192 97 231 118 217 97 b 152 158 167 97 152 118 l 152 259 l 21 259 l 21 164 b 192 -21 21 46 83 -21 b 362 164 301 -21 362 46 l 362 191 b 152 466 362 386 152 352 l 152 499 b 192 560 152 539 167 560 b 231 499 217 560 231 539 l 231 398 l 362 398 l 362 493 b 192 678 362 611 301 678 z "},"t":{"ha":235,"x_min":0,"x_max":0,"o":"m 44 185 b 215 0 44 67 106 0 l 215 118 b 175 179 190 118 175 139 l 175 539 l 221 539 l 221 657 l 175 657 l 175 800 l 44 800 l 44 657 l 11 657 l 11 539 l 44 539 z "},"u":{"ha":413,"x_min":0,"x_max":0,"o":"m 381 657 l 250 657 l 250 118 l 197 118 b 158 179 172 118 158 139 l 158 657 l 26 657 l 26 185 b 197 0 26 67 88 0 l 381 0 z "},"ù":{"ha":413,"x_min":0,"x_max":0,"o":"m 381 657 l 250 657 l 250 118 l 197 118 b 158 179 172 118 158 139 l 158 657 l 26 657 l 26 185 b 197 0 26 67 88 0 l 381 0 z "},"ú":{"ha":413,"x_min":0,"x_max":0,"o":"m 381 657 l 250 657 l 250 118 l 197 118 b 158 179 172 118 158 139 l 158 657 l 26 657 l 26 185 b 197 0 26 67 88 0 l 381 0 z "},"û":{"ha":413,"x_min":0,"x_max":0,"o":"m 381 657 l 250 657 l 250 118 l 197 118 b 158 179 172 118 158 139 l 158 657 l 26 657 l 26 185 b 197 0 26 67 88 0 l 381 0 z "},"ü":{"ha":413,"x_min":0,"x_max":0,"o":"m 381 657 l 250 657 l 250 118 l 197 118 b 158 179 172 118 158 139 l 158 657 l 26 657 l 26 185 b 197 0 26 67 88 0 l 381 0 z "},"v":{"ha":375,"x_min":0,"x_max":0,"o":"m 372 657 l 241 657 l 187 280 l 134 657 l 3 657 l 107 0 l 268 0 z "},"w":{"ha":633,"x_min":0,"x_max":0,"o":"m 444 280 l 392 657 l 241 657 l 187 280 l 134 657 l 3 657 l 107 0 l 268 0 l 317 344 l 364 0 l 526 0 l 629 657 l 498 657 l 444 280 z "},"x":{"ha":369,"x_min":0,"x_max":0,"o":"m 369 657 l 238 657 l 185 494 l 131 657 l 0 657 l 125 328 l 0 0 l 131 0 l 185 163 l 238 0 l 369 0 l 244 328 z "},"y":{"ha":369,"x_min":0,"x_max":0,"o":"m 202 -263 l 369 657 l 238 657 l 184 306 l 131 657 l 0 657 l 118 0 l 71 -263 z "},"ý":{"ha":369,"x_min":0,"x_max":0,"o":"m 202 -263 l 369 657 l 238 657 l 184 306 l 131 657 l 0 657 l 118 0 l 71 -263 z "},"ÿ":{"ha":369,"x_min":0,"x_max":0,"o":"m 202 -263 l 369 657 l 238 657 l 184 306 l 131 657 l 0 657 l 118 0 l 71 -263 z "},"z":{"ha":363,"x_min":0,"x_max":0,"o":"m 184 539 l 1 0 l 347 0 l 347 118 l 177 118 l 360 657 l 16 657 l 16 539 z "},"{":{"ha":265,"x_min":0,"x_max":0,"o":"m 89 681 b 15 526 89 583 60 541 l 15 447 b 89 292 60 431 89 389 l 89 92 b 265 -100 89 -18 152 -100 l 265 -21 b 225 39 240 -21 225 0 l 225 292 b 152 486 225 361 225 441 b 225 681 225 531 225 611 l 225 933 b 265 993 225 972 240 993 l 265 1072 b 89 880 152 1072 89 991 l 89 681 z "},"|":{"ha":149,"x_min":0,"x_max":0,"o":"m 35 972 l 35 -168 l 114 -168 l 114 972 z "},"}":{"ha":265,"x_min":0,"x_max":0,"o":"m 176 292 b 250 447 176 389 205 431 l 250 526 b 176 681 205 541 176 583 l 176 880 b 0 1072 176 991 113 1072 l 0 993 b 39 933 25 993 39 972 l 39 681 b 113 486 39 611 39 531 b 39 292 39 441 39 361 l 39 39 b 0 -21 39 0 25 -21 l 0 -100 b 176 92 113 -100 176 -18 z "}," ":{"ha":251,"x_min":0,"x_max":0,"o":""},"­":{"ha":0,"x_min":0,"x_max":0,"o":""}}}
